<?xml version="1.0" encoding="utf-8"?>
<!-- Generator: Adobe Illustrator 26.0.3, SVG Export Plug-In . SVG Version: 6.00 Build 0)  -->
<svg version="1.1" id="Слой_1" xmlns="http://www.w3.org/2000/svg" xmlns:xlink="http://www.w3.org/1999/xlink" x="0px" y="0px"
	 viewBox="0 0 1920 600.2" style="enable-background:new 0 0 1920 600.2;" xml:space="preserve">
<style type="text/css">
	.st0{fill:#14100F;}
	.st1{opacity:0.64;fill:none;stroke:#DC5B24;stroke-miterlimit:10;enable-background:new    ;}
	.st2{fill:none;stroke:#DC5B24;stroke-width:3;stroke-miterlimit:10;}
	.st3{fill:#DC5B24;}
	.st4{opacity:0.64;fill:#DC5B24;enable-background:new    ;}
</style>
<rect class="st0" width="1920" height="600.2"/>
<rect x="1263.1" y="-249.7" class="st1" width="1088" height="484.8"/>
<rect x="1377.4" y="128.4" class="st1" width="1088" height="484.8"/>
<rect x="1772.6" y="523.6" class="st1" width="468.4" height="228.9"/>
<rect x="957" y="128.4" class="st2" width="1088" height="484.8"/>
<rect x="957" y="128.4" class="st3" width="99.3" height="57"/>
<rect x="1188.4" y="83.6" class="st4" width="74.7" height="44.6"/>
<rect x="1772.6" y="523.6" class="st4" width="69.1" height="43.5"/>
<rect x="957" y="561.3" class="st3" width="159.7" height="103.8"/>
<rect x="-24.9" y="520.7" class="st3" width="2181.4" height="2.8"/>
<rect x="1568.6" y="128.4" class="st3" width="159.7" height="106.6"/>
<rect x="1437" y="399.7" class="st3" width="40.6" height="213.5"/>
<rect x="1558.5" y="569.6" class="st3" width="114.5" height="29.8"/>
<rect x="896" y="522.1" class="st3" width="61" height="22.6"/>
<rect x="1227.5" y="467" class="st3" width="47.1" height="55.1"/>
<circle class="st3" cx="1457.3" cy="366.5" r="25.3"/>
<circle class="st3" cx="1870.2" cy="479.7" r="36.2"/>
<circle class="st3" cx="1599.7" cy="90.9" r="31.1"/>
<circle class="st3" cx="1025.2" cy="223.6" r="31.1"/>
</svg>
